<svg version="1.1" xmlns="http://www.w3.org/2000/svg" xmlns:xlink="http://www.w3.org/1999/xlink" width="24" height="24" viewBox="0,0,256,256"><g fill="none" fill-rule="nonzero" stroke="none" stroke-width="2" stroke-linecap="round" stroke-linejoin="round" stroke-miterlimit="10" stroke-dasharray="" stroke-dashoffset="0" font-family="none" font-weight="none" font-size="none" text-anchor="none" style="mix-blend-mode: normal"><g transform="scale(10.66667,10.66667)"><path d="M0,0h24v24h-24z" stroke="none"></path><path d="M3,16M3,17c0,-0.55228 0.44772,-1 1,-1h3c0.55228,0 1,0.44772 1,1v3c0,0.55228 -0.44772,1 -1,1h-3c-0.55228,0 -1,-0.44772 -1,-1z" stroke="#ffffff"></path><path d="M4,12v-6c0,-1.10457 0.89543,-2 2,-2h12c1.10457,0 2,0.89543 2,2v12c0,1.10457 -0.89543,2 -2,2h-6" stroke="#ffffff"></path><path d="M12,8h4v4" stroke="#ffffff"></path><path d="M16,8l-5,5" stroke="#ffffff"></path></g></g></svg>